<svg
    width="26"
    height="16"
    viewBox="0 0 26 16"
    fill="none"
    xmlns="http://www.w3.org/2000/svg"
>
    <path
    fillRule="evenodd"
    clipRule="evenodd"
    d="M20.6439 10.828V5.00402L25.5999 2.00802V13.824L20.6439 10.828ZM18.4319 15.308H1.9119C1.0719 15.308 0.399902 14.664 0.399902 13.852V2.14802C0.399902 1.33602 1.0719 0.692017 1.9119 0.692017H18.4319C19.2719 0.692017 19.9439 1.33602 19.9439 2.14802V13.824C19.9439 14.664 19.2719 15.308 18.4319 15.308ZM16.9199 3.80002C16.9199 3.49202 16.6679 3.24002 16.3599 3.24002H13.1119C12.8039 3.24002 12.5519 3.49202 12.5519 3.80002V4.36002C12.5519 4.66802 12.8039 4.92002 13.1119 4.92002H16.3319C16.6399 4.92002 16.8919 4.66802 16.8919 4.36002V3.80002H16.9199Z"
    fill="#999999"
    />
</svg>